<svg xmlns="http://www.w3.org/2000/svg" width="540" height="960"><path fill="#fff" d="M0 0h540v960H0z"/><path fill="#f4f4f4" d="M540 486c-45.6-1-91.1-2-122.4-29.1-31.3-27.1-48.4-80.4-82.6-101.8-34.2-21.5-85.6-11.1-125.9-24.2-40.4-13-69.7-49.6-90-87.9-20.3-38.3-31.5-78.5-40.8-119.3C68.9 82.9 61.5 41.5 54 0h486z"/><path fill="#dfdfdf" d="M540 324c-30.4-.7-60.7-1.3-81.6-19.4-20.9-18.1-32.3-53.6-55.1-67.9-22.8-14.3-57-7.4-83.9-16.1-26.9-8.7-46.5-33-60-58.6s-21-52.3-27.2-79.5C226 55.3 221 27.6 216 0h324z"/><path fill="#d4d4d4" d="M540 162c-15.2-.3-30.4-.7-40.8-9.7-10.4-9-16.1-26.8-27.5-33.9-11.4-7.2-28.6-3.7-42-8.1-13.5-4.3-23.2-16.5-30-29.3-6.8-12.8-10.5-26.2-13.6-39.8C383 27.6 380.5 13.8 378 0h162z"/><path fill="#f4f4f4" d="M0 474c44.8-1.1 89.6-2.3 125.8 16.6 36.1 18.8 63.7 57.5 97.2 83.2 33.5 25.6 73.1 38 95.9 67.3 22.8 29.2 28.8 75.3 38.8 112.4 10 37.1 24 65.4 46.1 98.3 22 32.9 52.1 70.6 82.2 108.2H0z"/><path fill="#dfdfdf" d="M0 636c29.9-.8 59.8-1.5 83.9 11 24.1 12.6 42.4 38.4 64.8 55.5 22.3 17.1 48.7 25.4 63.9 44.9 15.2 19.5 19.2 50.2 25.8 74.9 6.7 24.8 16.1 43.6 30.8 65.6 14.7 21.9 34.7 47 54.8 72.1H0z"/><path fill="#d4d4d4" d="M0 798c14.9-.4 29.9-.8 41.9 5.5 12.1 6.3 21.3 19.2 32.4 27.8 11.2 8.5 24.4 12.6 32 22.4 7.6 9.7 9.6 25.1 12.9 37.5 3.4 12.3 8 21.8 15.4 32.7 7.3 11 17.4 23.6 27.4 36.1H0z"/></svg>